<?xml version="1.0" encoding="utf-8"?>
<!-- Generator: Adobe Illustrator 23.1.0, SVG Export Plug-In . SVG Version: 6.00 Build 0)  -->
<svg version="1.1" id="图层_1" xmlns="http://www.w3.org/2000/svg" xmlns:xlink="http://www.w3.org/1999/xlink" x="0px" y="0px"
	 viewBox="0 0 406 306" style="enable-background:new 0 0 406 306;" xml:space="preserve">
<style type="text/css">
	.st0{fill:#FFB3A6;}
	.st1{fill:#772E29;}
	.st2{fill:#A04D42;}
	.st3{fill:#F84A4B;}
	.st4{fill:none;stroke:#F2F2F2;stroke-width:1.015;stroke-miterlimit:10.15;}
	.st5{fill:#FFFFFF;}
	.st6{opacity:0.63;fill:url(#SVGID_1_);enable-background:new    ;}
	.st7{opacity:0.63;fill:url(#SVGID_2_);enable-background:new    ;}
	.st8{opacity:0.63;fill:url(#SVGID_3_);enable-background:new    ;}
	.st9{fill:#68E1FD;}
	.st10{opacity:0.95;fill:#606060;enable-background:new    ;}
	.st11{fill:#00DDC7;}
	.st12{opacity:0.63;fill:url(#SVGID_4_);enable-background:new    ;}
	.st13{opacity:0.63;fill:url(#SVGID_5_);enable-background:new    ;}
	.st14{fill:#B24800;}
	.st15{fill:#DF5D00;}
	.st16{fill:#FF8522;}
	.st17{opacity:0.15;fill:#FF8522;enable-background:new    ;}
	.st18{fill:#FF9F57;}
</style>
<title>141-150</title>
<g>
	<g id="Layer_2">
		<path class="st0" d="M27.3,147.5L165,67.4c2-1.2,4.5-1.2,6.5,0l205.8,117.8c3.1,1.8,4.2,5.8,2.4,8.9c-0.6,1-1.4,1.8-2.4,2.4
			l-131.6,76c-6.6,3.8-14.7,3.8-21.2,0L27.4,158.8c-3.1-1.8-4.2-5.8-2.4-8.9C25.5,148.9,26.4,148.1,27.3,147.5z"/>
		<path class="st1" d="M172.1,84.8V25.1h-4v59.4C169.4,85.1,170.8,85.2,172.1,84.8z"/>
		<polygon class="st2" points="83.1,174 202.7,242.5 232.1,225.3 113.4,156.5 		"/>
		<polygon class="st1" points="113.4,156.5 113.4,191.3 83.1,174 		"/>
		<ellipse transform="matrix(0.9816 -0.1908 0.1908 0.9816 -2.0598 33.0582)" class="st3" cx="170.6" cy="27.2" rx="15" ry="17.3"/>
		
			<ellipse transform="matrix(0.9816 -0.1908 0.1908 0.9816 -2.0598 33.0582)" class="st4" cx="170.6" cy="27.2" rx="12.1" ry="13.9"/>
		<path class="st5" d="M171.7,18.5c-0.8-0.7-2.1-0.7-2.9,0c-0.9,0.9-0.6,2.2-0.6,3.4v3.7c0,1.4,0,2.8,0,4.3c-0.1,1.2,0.8,2.2,2,2.3
			c0.3,0,0.6,0,0.9-0.1c1.2-0.5,1.1-1.7,1.1-2.7c0-2.6,0-5.1,0-7.7c0-0.9,0.3-2-0.3-2.9C171.8,18.7,171.7,18.6,171.7,18.5z"/>
		<path class="st5" d="M169.7,34.1c-0.3,0.1-0.6,0.4-0.8,0.7c-0.6,1.5,1,3.2,2.4,2c0.6-0.7,0.6-1.8-0.1-2.4
			c-0.1-0.1-0.2-0.2-0.4-0.3C170.5,34.1,170.1,34,169.7,34.1z"/>
		
			<linearGradient id="SVGID_1_" gradientUnits="userSpaceOnUse" x1="131.4435" y1="152.2778" x2="142.7735" y2="179.1178" gradientTransform="matrix(1.015 0 0 -1.015 -1.545 309.42)">
			<stop  offset="0" style="stop-color:#FFFFFF;stop-opacity:0"/>
			<stop  offset="0.98" style="stop-color:#84210B"/>
		</linearGradient>
		<polyline class="st6" points="200,120.8 127.4,163.4 85.3,137.8 144.7,103.1 		"/>
		
			<linearGradient id="SVGID_2_" gradientUnits="userSpaceOnUse" x1="192.8969" y1="114.2191" x2="203.1869" y2="138.5891" gradientTransform="matrix(1.015 0 0 -1.015 -1.545 309.42)">
			<stop  offset="0" style="stop-color:#FFFFFF;stop-opacity:0"/>
			<stop  offset="0.98" style="stop-color:#84210B"/>
		</linearGradient>
		<path class="st7" d="M240.7,162.3c-4.6,2.2-9.4,3.7-14.5,4.4c-7.6,1.1-18,3-25-1.2c-6.6-3.9-6.9-10.7-4.4-17l-48.7,28.2l51.5,28.6
			l56.8-33.3L240.7,162.3z"/>
		
			<linearGradient id="SVGID_3_" gradientUnits="userSpaceOnUse" x1="254.2705" y1="81.4791" x2="263.1005" y2="102.3991" gradientTransform="matrix(1.015 0 0 -1.015 -1.545 309.42)">
			<stop  offset="0" style="stop-color:#FFFFFF;stop-opacity:0"/>
			<stop  offset="0.98" style="stop-color:#84210B"/>
		</linearGradient>
		<polyline class="st8" points="310,208.2 261.2,236.8 217,212.3 268.2,182.6 		"/>
		<path class="st9" d="M329.3,181.7l-2.5-1.5l-9.7,0.9l0.9-2.7l-12.3-3.4H268l-21.9,6.9v12.6l20,11.5h-1v12.6l13.8,8l11.5-6.6
			l7.4,4.3l11.9-6.9V209l33.3-19.3h0.1V177L329.3,181.7z M288.3,205.3l-17.5-10.1l42.2-4.3L288.3,205.3z"/>
		<path class="st10" d="M329.3,181.7l-2.5-1.5l-9.7,0.9l0.9-2.7l-12.3-3.4H268l-21.9,6.9v12.6l20,11.5h-1v12.6l13.8,8l11.5-6.6
			l7.4,4.3l11.9-6.9V209l33.3-19.3h0.1V177L329.3,181.7z M288.3,205.3l-17.5-10.1l42.2-4.3L288.3,205.3z"/>
		<path class="st11" d="M302.1,200.6l7.4,4.3l-11.9,6.9l-7.4-4.3l-11.4,6.6l-13.8-8l11.4-6.6L246,182l13.7-8l67-6.4l16.1,9.3
			L302.1,200.6z M288.3,192.7l24.7-14.4l-42.2,4.3L288.3,192.7"/>
		<path class="st9" d="M267.8,153.3v-14.4l-10.2,1.2l-0.2-0.1c-1.8-1-3.7-1.9-5.7-2.7c-1.2-3.2-4.1-9.3-8.4-10.4
			c-6-1.6-16.2,0.2-16.2,0.2l-22.4,9.8c0.1,0,1.7,0.4,3.9,0.9c-4.2,1.5-8.3,3.4-12.2,5.6c-2.6,1.5-5,3.1-7.3,5l-9,1.1v14.6l0,0
			c0,5.8,3.5,10.7,10.4,14.7c7.7,4.4,17.3,6.4,28.8,5.9c11.3-0.5,22.4-3.7,32.2-9.5c10-5.8,15.4-12.1,16.1-18.7
			C267.9,155.5,267.9,154.4,267.8,153.3z M210.2,151.4c6-3.7,12.7-5.9,19.6-6.7c6.4-0.6,11.5,0.2,15.2,2.4c1,0.5,1.9,1.2,2.6,2
			c-5.9,7.8-15.3,13-25,15c-7.4,1.6-14.1,1.1-20.3-3.4c-0.6-0.4-1.3-0.9-1.9-1.4C202.3,156.8,205.6,154.1,210.2,151.4L210.2,151.4z"
			/>
		<path class="st10" d="M267.8,153.3v-14.4l-10.2,1.2l-0.2-0.1c-1.8-1-3.7-1.9-5.7-2.7c-1.2-3.2-4.1-9.3-8.4-10.4
			c-6-1.6-16.2,0.2-16.2,0.2l-22.4,9.8c0.1,0,1.7,0.4,3.9,0.9c-4.2,1.5-8.3,3.4-12.2,5.6c-2.6,1.5-5,3.1-7.3,5l-9,1.1v14.6l0,0
			c0,5.8,3.5,10.7,10.4,14.7c7.7,4.4,17.3,6.4,28.8,5.9c11.3-0.5,22.4-3.7,32.2-9.5c10-5.8,15.4-12.1,16.1-18.7
			C267.9,155.5,267.9,154.4,267.8,153.3z M210.2,151.4c6-3.7,12.7-5.9,19.6-6.7c6.4-0.6,11.5,0.2,15.2,2.4c1,0.5,1.9,1.2,2.6,2
			c-5.9,7.8-15.3,13-25,15c-7.4,1.6-14.1,1.1-20.3-3.4c-0.6-0.4-1.3-0.9-1.9-1.4C202.3,156.8,205.6,154.1,210.2,151.4L210.2,151.4z"
			/>
		<path class="st11" d="M267.8,142.3c-0.8,6.7-6.1,12.9-16.1,18.7c-9.8,5.8-20.9,9-32.3,9.4c-11.5,0.5-21.1-1.5-28.8-5.9
			c-7.7-4.4-11.1-10-10.4-16.6c0.8-6.7,6.2-12.9,16.2-18.7c9.8-5.8,20.9-9,32.2-9.4c11.5-0.5,21.1,1.5,28.7,6
			C265.1,130.2,268.5,135.7,267.8,142.3z M218.2,159.7c7-0.7,13.7-3,19.6-6.7c6.7-3.9,10.5-7.7,11.5-11.4s-0.5-6.6-4.2-8.8
			c-3.7-2.2-8.8-3-15.2-2.4c-7,0.7-13.7,3-19.6,6.7c-6.7,3.9-10.5,7.7-11.4,11.4c-0.9,3.7,0.5,6.6,4.2,8.8
			C206.8,159.5,211.8,160.3,218.2,159.7"/>
		<path class="st9" d="M197.5,108.7l-2.5-1.5l-9.7,0.9l0.9-2.7L174,102h-37.8l-21.9,6.9v12.6l20,11.5h-1v12.6l13.8,8l11.4-6.6
			l7.4,4.3l11.9-6.9v-8.5l33.3-19.3h0.1V104L197.5,108.7z M156.6,132.2l-17.5-10.2l42.2-4.3L156.6,132.2z"/>
		<path class="st10" d="M197.5,108.7l-2.5-1.5l-9.7,0.9l0.9-2.7L174,102h-37.8l-21.9,6.9v12.6l20,11.5h-1v12.6l13.8,8l11.4-6.6
			l7.4,4.3l11.9-6.9v-8.5l33.3-19.3h0.1V104L197.5,108.7z M156.6,132.2l-17.5-10.2l42.2-4.3L156.6,132.2z"/>
		<path class="st11" d="M170.4,127.6l7.4,4.3l-11.9,6.9l-7.4-4.3l-11.4,6.6l-13.8-8l11.4-6.6L114.3,109l13.7-8l67-6.4l16.1,9.3
			L170.4,127.6z M156.6,119.6l24.7-14.4l-42.2,4.2L156.6,119.6"/>
		
			<linearGradient id="SVGID_4_" gradientUnits="userSpaceOnUse" x1="58.9446" y1="134.9866" x2="66.0746" y2="144.9166" gradientTransform="matrix(1.015 0 0 -1.015 -1.545 309.42)">
			<stop  offset="0" style="stop-color:#FFFFFF;stop-opacity:0"/>
			<stop  offset="0.98" style="stop-color:#84210B"/>
		</linearGradient>
		<path class="st12" d="M66.6,147.7l-28.1,16.4l24.8,15L90.8,163C82.5,158.3,74.1,153.6,66.6,147.7z"/>
		
			<linearGradient id="SVGID_5_" gradientUnits="userSpaceOnUse" x1="217.2888" y1="42.3478" x2="222.6388" y2="49.9778" gradientTransform="matrix(1.015 0 0 -1.015 -1.545 309.42)">
			<stop  offset="0" style="stop-color:#FFFFFF;stop-opacity:0"/>
			<stop  offset="0.98" style="stop-color:#84210B"/>
		</linearGradient>
		<path class="st13" d="M228.2,240.3L200,256.7l24.8,15l27.6-16.2C244,251,235.7,246.3,228.2,240.3z"/>
		<path class="st14" d="M79,170l22.6-13.4c1.6-1,2.2-3.1,1.2-4.7c-0.3-0.5-0.6-0.9-1.1-1.1L83,138.5c-1.9-1.3-4.5-1.3-6.4,0
			l-22.2,15c-1.6,1.1-2,3.2-0.9,4.8c0.3,0.4,0.7,0.8,1.1,1L72.2,170C74.3,171.2,76.9,171.2,79,170z"/>
		<path class="st15" d="M79,167.9l22.6-13.4c1.6-1,2.2-3.1,1.2-4.7c-0.3-0.5-0.6-0.9-1.1-1.1L83,136.4c-1.9-1.3-4.5-1.3-6.4,0
			l-22.2,15c-1.6,1.1-2,3.2-0.9,4.8c0.3,0.4,0.7,0.8,1.1,1l17.7,10.6C74.3,169.1,76.9,169.1,79,167.9z"/>
		<path class="st16" d="M75.2,114.1l-12,38c0,0-2.9,9.6,15.1,8.7c18-1,15.7-9.9,15.7-9.9l-12-36.8"/>
		<path class="st5" d="M70.7,128.2c0,0,2.4,2.5,7.9,2.5c6.9,0,7.6-3.4,7.6-3.4l2.5,7.7c0,0-1.8,4.3-10.2,4.2
			c-7.5-0.1-10.5-2.8-10.5-2.8"/>
		<path class="st5" d="M66.3,142.7c3.3,3.2,7.6,4.9,12.2,4.8c8.9-0.1,12.3-6.4,12.3-6.4l2.6,8.1c0,0-3.8,5.9-14.8,6.7
			c-10.4,0.7-14.8-5.1-14.8-5.1"/>
		<path class="st17" d="M77.8,114.4h-2.6l-12,38c0,0-2.7,9,13.3,8.7C76.9,145.6,77.6,130,77.8,114.4z"/>
		<ellipse class="st18" cx="78.6" cy="114.4" rx="3.4" ry="2"/>
		<path class="st14" d="M237.1,265.2l22.6-13.4c1.6-1,2.2-3.1,1.2-4.7c-0.3-0.5-0.6-0.9-1.1-1.1l-18.7-12.2c-1.9-1.3-4.5-1.3-6.4,0
			l-22.2,15c-1.6,1.1-2,3.2-0.9,4.8c0.3,0.4,0.7,0.8,1.1,1l17.7,10.7C232.5,266.4,235.1,266.4,237.1,265.2z"/>
		<path class="st15" d="M237.1,263.1l22.6-13.4c1.6-1,2.2-3.1,1.2-4.7c-0.3-0.5-0.6-0.9-1.1-1.1l-18.7-12.2c-1.9-1.3-4.5-1.3-6.4,0
			l-22.2,15c-1.6,1.1-2,3.2-0.9,4.8c0.3,0.4,0.7,0.8,1.1,1l17.7,10.7C232.5,264.4,235.1,264.4,237.1,263.1z"/>
		<path class="st16" d="M233.4,209.3l-12,38c0,0-2.9,9.6,15.1,8.7c18-1,15.7-9.9,15.7-9.9l-12-36.8"/>
		<path class="st5" d="M228.9,223.4c0,0,2.4,2.5,7.9,2.5c6.9,0,7.6-3.4,7.6-3.4l2.5,7.7c0,0-1.8,4.3-10.1,4.2
			c-7.5-0.1-10.5-2.8-10.5-2.8"/>
		<path class="st5" d="M224.5,237.9c3.3,3.2,7.6,4.9,12.2,4.8c8.9-0.1,12.3-6.4,12.3-6.4l2.6,8.1c0,0-3.8,5.9-14.8,6.7
			c-10.4,0.7-14.8-5.1-14.8-5.1"/>
		<path class="st17" d="M236,209.6h-2.6l-12,38c0,0-2.7,9,13.3,8.7C235,240.8,235.8,225.2,236,209.6z"/>
		<ellipse class="st18" cx="236.8" cy="209.6" rx="3.4" ry="2"/>
	</g>
</g>
</svg>
